<svg xmlns="http://www.w3.org/2000/svg" viewBox="0 0 300 300" width="100%" height="100%"><path fill="currentColor" d="M146 125V86Q146 81 142.5 77.0Q139 73 133 73H91Q86 73 82.0 77.0Q78 81 78 86V123Q78 130 73 135L62 146Q57 151 50 151H13Q8 151 4.0 155.0Q0 159 0 164V206Q0 212 4.0 215.5Q8 219 13 219H55Q61 219 64.5 215.5Q68 212 68 206V169Q68 162 73 157L84 146Q89 141 96 141H130Q137 141 141.5 136.5Q146 132 146 125ZM242 128V86Q242 81 238.0 77.0Q234 73 229 73H187Q181 73 177.5 77.0Q174 81 174 86V123Q174 130 169 135L158 146Q153 151 146 151H109Q103 151 99.5 155.0Q96 159 96 164V206Q96 212 99.5 215.5Q103 219 109 219H151Q156 219 160.0 215.5Q164 212 164 206V169Q164 162 169 157L180 146Q185 141 192 141H229Q234 141 238.0 137.5Q242 134 242 128ZM274 218 288 215V151L274 148ZM207 215 221 211V155L207 152ZM243 213 229 217V179L243 183ZM266 170 252 174V204L266 207Z"/></svg>
