<svg xmlns="http://www.w3.org/2000/svg" viewBox="0 0 300 300" width="100%" height="100%"><path fill="currentColor" d="M103 19Q115 19 123.0 27.0Q131 35 131 47V253Q131 265 123.0 273.0Q115 281 103 281H47Q35 281 27.0 273.0Q19 265 19 253V47Q19 35 27.0 27.0Q35 19 47 19ZM47 37Q43 37 40.5 40.0Q38 43 38 47V253Q38 257 40.5 259.5Q43 262 47 262H103Q107 262 110.0 259.5Q113 257 113 253V47Q113 43 110.0 40.0Q107 37 103 37ZM253 169Q265 169 273.0 177.0Q281 185 281 197V253Q281 265 273.0 273.0Q265 281 253 281H197Q185 281 177.0 273.0Q169 265 169 253V197Q169 185 177.0 177.0Q185 169 197 169ZM197 187Q193 187 190.5 190.0Q188 193 188 197V253Q188 257 190.5 259.5Q193 262 197 262H253Q257 262 260.0 259.5Q263 257 263 253V197Q263 193 260.0 190.0Q257 187 253 187ZM253 19Q265 19 273.0 27.0Q281 35 281 47V103Q281 115 273.0 123.0Q265 131 253 131H197Q185 131 177.0 123.0Q169 115 169 103V47Q169 35 177.0 27.0Q185 19 197 19ZM197 37Q193 37 190.5 40.0Q188 43 188 47V103Q188 107 190.5 109.5Q193 112 197 112H253Q257 112 260.0 109.5Q263 107 263 103V47Q263 43 260.0 40.0Q257 37 253 37Z"/></svg>
