<svg xmlns="http://www.w3.org/2000/svg" viewBox="0 0 300 300" width="100%" height="100%"><path fill="currentColor" d="M147 181Q150 184 150.0 187.5Q150 191 147 194L72 269Q70 272 66.0 272.0Q62 272 59.0 269.0Q56 266 56.0 262.5Q56 259 59 256L127 187L59 119Q56 116 56.0 112.5Q56 109 59.0 106.0Q62 103 66.0 103.0Q70 103 72 106ZM173 112 241 44Q244 41 244.0 37.5Q244 34 241.0 31.0Q238 28 234.0 28.0Q230 28 228 31L153 106Q150 109 150.0 112.5Q150 116 153 119L228 194Q230 197 234.0 197.0Q238 197 241.0 194.0Q244 191 244.0 187.5Q244 184 241 181Z"/></svg>
