<svg xmlns="http://www.w3.org/2000/svg" viewBox="0 0 300 300" width="100%" height="100%"><path fill="currentColor" d="M244 16Q260 16 272.0 28.0Q284 40 284 56V244Q284 260 272.0 272.0Q260 284 244 284H56Q40 284 28.0 272.0Q16 260 16 244V56Q16 40 28.0 28.0Q40 16 56 16ZM196 104Q192 101 187.5 101.0Q183 101 179 104L124 159V112Q124 108 120.5 104.5Q117 101 112.5 101.0Q108 101 104.5 104.5Q101 108 101 112V187Q101 192 104.5 195.5Q108 199 113 199H188Q192 199 195.5 195.5Q199 192 199.0 187.5Q199 183 195.5 179.5Q192 176 188 176H141L196 121Q199 117 199.0 112.5Q199 108 196 104Z"/></svg>
