<svg xmlns="http://www.w3.org/2000/svg" viewBox="0 0 300 300" width="100%" height="100%"><path fill="currentColor" d="M75 120Q80 120 83.5 123.0Q87 126 87.0 131.0Q87 136 83.5 139.5Q80 143 75 143H47Q44 143 42.0 145.0Q40 147 40 150V253Q40 256 42.0 258.0Q44 260 47 260H253Q256 260 258.0 258.0Q260 256 260 253V150Q260 147 258.0 145.0Q256 143 253 143H225Q220 143 216.5 139.5Q213 136 213.0 131.0Q213 126 216.5 123.0Q220 120 225 120H253Q266 120 275.0 128.5Q284 137 284 150V253Q284 266 275.0 275.0Q266 284 253 284H47Q34 284 25.0 275.0Q16 266 16 253V150Q16 137 25.0 128.5Q34 120 47 120ZM150 7Q155 7 158 10L215 67Q218 70 218.0 75.0Q218 80 214.5 83.5Q211 87 206.0 87.0Q201 87 198 83L162 47V197Q162 202 158.5 205.5Q155 209 150.0 209.0Q145 209 141.5 205.5Q138 202 138 197V47L102 83Q99 87 94.0 87.0Q89 87 85.5 83.5Q82 80 82.0 75.0Q82 70 85 67L142 10Q145 7 150 7Z"/></svg>
