<svg xmlns="http://www.w3.org/2000/svg" viewBox="0 0 300 300" width="100%" height="100%"><path fill="currentColor" d="M244 16Q260 16 272.0 28.0Q284 40 284 56V244Q284 260 272.0 272.0Q260 284 244 284H56Q40 284 28.0 272.0Q16 260 16 244V56Q16 40 28.0 28.0Q40 16 56 16ZM56 40Q49 40 44.5 44.5Q40 49 40 56V244Q40 251 44.5 255.5Q49 260 56 260H244Q251 260 255.5 255.5Q260 251 260 244V56Q260 49 255.5 44.5Q251 40 244 40ZM95 95Q98 91 103.0 91.0Q108 91 111 95L205 189Q209 192 209.0 197.0Q209 202 205.5 205.5Q202 209 197.0 209.0Q192 209 189 205L95 111Q91 108 91.0 103.0Q91 98 95 95Z"/></svg>
