<svg xmlns="http://www.w3.org/2000/svg" viewBox="0 0 300 300" width="100%" height="100%"><path fill="currentColor" d="M159 176Q176 176 187.5 187.5Q199 199 199 216V253Q199 258 195.5 261.5Q192 265 187.5 265.0Q183 265 179.5 261.5Q176 258 176 253V216Q176 209 171.0 204.0Q166 199 159 199H47Q40 199 35.0 204.0Q30 209 30 216V253Q30 258 27.0 261.5Q24 265 19.0 265.0Q14 265 10.5 261.5Q7 258 7 253V216Q7 199 18.5 187.5Q30 176 47 176ZM253 176Q270 176 281.5 187.5Q293 199 293 216V253Q293 258 289.5 261.5Q286 265 281.0 265.0Q276 265 273.0 261.5Q270 258 270 253V216Q270 209 265.0 204.0Q260 199 253 199H234Q230 199 226.5 195.5Q223 192 223.0 187.5Q223 183 226.5 179.5Q230 176 234 176ZM103 26Q119 26 132.5 34.0Q146 42 154.0 55.0Q162 68 162.0 84.0Q162 100 154.0 113.5Q146 127 132.5 135.0Q119 143 103.0 143.0Q87 143 73.5 135.0Q60 127 52.5 113.5Q45 100 45.0 84.0Q45 68 52.5 55.0Q60 42 73.5 34.0Q87 26 103 26ZM197 26Q209 26 219.5 30.5Q230 35 238.5 43.0Q247 51 251.0 62.0Q255 73 255.0 84.5Q255 96 251.0 107.0Q247 118 238.5 126.0Q230 134 219.5 138.5Q209 143 197 143Q192 143 188.5 139.5Q185 136 185.0 131.0Q185 126 188.5 123.0Q192 120 198.0 120.0Q204 120 210.5 117.0Q217 114 222.0 109.0Q227 104 229.5 97.5Q232 91 232.0 84.0Q232 77 229.5 70.5Q227 64 222.0 59.5Q217 55 210.5 52.0Q204 49 198.0 49.0Q192 49 188.5 45.5Q185 42 185.0 37.5Q185 33 188.5 29.5Q192 26 197 26ZM103 49Q89 49 78.5 59.5Q68 70 68.0 84.5Q68 99 78.5 109.5Q89 120 103.5 120.0Q118 120 128.0 109.5Q138 99 138.0 84.5Q138 70 128.0 59.5Q118 49 103 49Z"/></svg>
